<svg xmlns="http://www.w3.org/2000/svg" xmlns:xlink="http://www.w3.org/1999/xlink" width="637" height="223" contentScriptType="application/ecmascript" contentStyleType="text/css" preserveAspectRatio="none" style="width:637px;height:223px" version="1.1" viewBox="0 0 637 223" zoomAndPan="magnify"><defs><filter id="fh7abla96c8rb" width="300%" height="300%" x="-1" y="-1"><feGaussianBlur result="blurOut" stdDeviation="2"/><feColorMatrix in="blurOut" result="blurOut2" type="matrix" values="0 0 0 0 0 0 0 0 0 0 0 0 0 0 0 0 0 0 .4 0"/><feOffset dx="4" dy="4" in="blurOut2" result="blurOut3"/><feBlend in="SourceGraphic" in2="blurOut3" mode="normal"/></filter></defs><g><polygon fill="#FEFECE" points="6 30.5 6 66.797 120 66.797 120 40.5 110 30.5 6 30.5" filter="url(#fh7abla96c8rb)" style="stroke:#000;stroke-width:1.5"/><path fill="#FEFECE" d="M110,30.5 L110,40.5 L120,40.5" style="stroke:#000;stroke-width:1.5"/><text x="16" y="53.495" fill="#000" font-family="sans-serif" font-size="14" lengthAdjust="spacingAndGlyphs" textLength="94">SphinxProject</text><polygon fill="#FEFECE" points="155 30.5 155 66.797 197 66.797 197 40.5 187 30.5 155 30.5" filter="url(#fh7abla96c8rb)" style="stroke:#000;stroke-width:1.5"/><path fill="#FEFECE" d="M187,30.5 L187,40.5 L197,40.5" style="stroke:#000;stroke-width:1.5"/><text x="165" y="53.495" fill="#000" font-family="sans-serif" font-size="14" lengthAdjust="spacingAndGlyphs" textLength="22">.rst</text><path fill="#FEFECE" d="M359.5,36 C359.5,26 383,26 383,26 C383,26 406.5,26 406.5,36 L406.5,61.2969 C406.5,71.2969 383,71.2969 383,71.2969 C383,71.2969 359.5,71.2969 359.5,61.2969 L359.5,36" filter="url(#fh7abla96c8rb)" style="stroke:#000;stroke-width:1.5"/><path fill="none" d="M359.5,36 C359.5,46 383,46 383,46 C383,46 406.5,46 406.5,36" style="stroke:#000;stroke-width:1.5"/><text x="369.5" y="62.995" fill="#000" font-family="sans-serif" font-size="14" lengthAdjust="spacingAndGlyphs" textLength="27">.pot</text><path fill="#FEFECE" d="M483,36 C483,26 504,26 504,26 C504,26 525,26 525,36 L525,61.2969 C525,71.2969 504,71.2969 504,71.2969 C504,71.2969 483,71.2969 483,61.2969 L483,36" filter="url(#fh7abla96c8rb)" style="stroke:#000;stroke-width:1.5"/><path fill="none" d="M483,36 C483,46 504,46 504,46 C504,46 525,46 525,36" style="stroke:#000;stroke-width:1.5"/><text x="493" y="62.995" fill="#000" font-family="sans-serif" font-size="14" lengthAdjust="spacingAndGlyphs" textLength="22">.po</text><path fill="#FEFECE" d="M398,176 C398,166 421,166 421,166 C421,166 444,166 444,176 L444,201.2969 C444,211.2969 421,211.2969 421,211.2969 C421,211.2969 398,211.2969 398,201.2969 L398,176" filter="url(#fh7abla96c8rb)" style="stroke:#000;stroke-width:1.5"/><path fill="none" d="M398,176 C398,186 421,186 421,186 C421,186 444,186 444,176" style="stroke:#000;stroke-width:1.5"/><text x="408" y="202.995" fill="#000" font-family="sans-serif" font-size="14" lengthAdjust="spacingAndGlyphs" textLength="26">.mo</text><ellipse cx="593" cy="17.5" fill="#FEFECE" filter="url(#fh7abla96c8rb)" rx="8" ry="8" style="stroke:#a80036;stroke-width:1.5"/><path fill="none" d="M593,25.5 L593,52.5 M580,33.5 L606,33.5 M593,52.5 L580,67.5 M593,52.5 L606,67.5" filter="url(#fh7abla96c8rb)" style="stroke:#a80036;stroke-width:1.5"/><text x="560.5" y="85.995" fill="#000" font-family="sans-serif" font-size="14" lengthAdjust="spacingAndGlyphs" textLength="65">translator</text><polygon fill="#FEFECE" points="214.5 170.5 214.5 206.797 341.5 206.797 341.5 180.5 331.5 170.5 214.5 170.5" filter="url(#fh7abla96c8rb)" style="stroke:#000;stroke-width:1.5"/><path fill="#FEFECE" d="M331.5,170.5 L331.5,180.5 L341.5,180.5" style="stroke:#000;stroke-width:1.5"/><text x="224.5" y="193.495" fill="#000" font-family="sans-serif" font-size="14" lengthAdjust="spacingAndGlyphs" textLength="107">TranslatedBuild</text><path id=".po&lt;-translator" fill="none" d="M530.44,48.5 C540.43,48.5 550.43,48.5 560.43,48.5" style="stroke:#a80036;stroke-width:1"/><polygon fill="#A80036" points="525.21 48.5 534.21 52.5 530.21 48.5 534.21 44.5 525.21 48.5" style="stroke:#a80036;stroke-width:1"/><path id="SphinxProject-&gt;.rst" fill="none" d="M120.38,48.5 C130.13,48.5 139.87,48.5 149.61,48.5" style="stroke:#a80036;stroke-width:1"/><polygon fill="#A80036" points="154.71 48.5 145.71 44.5 149.71 48.5 145.71 52.5 154.71 48.5" style="stroke:#a80036;stroke-width:1"/><path id=".rst-&gt;.pot" fill="none" d="M197.37,48.5 C234.72,48.5 311.88,48.5 354,48.5" style="stroke:#a80036;stroke-width:1"/><polygon fill="#A80036" points="359.21 48.5 350.21 44.5 354.21 48.5 350.21 52.5 359.21 48.5" style="stroke:#a80036;stroke-width:1"/><text x="215.25" y="41.567" fill="#000" font-family="sans-serif" font-size="13" lengthAdjust="spacingAndGlyphs" textLength="126">sphinx-build gettext</text><path id=".pot-&gt;.po" fill="none" d="M406.62,48.5 C427.03,48.5 456.51,48.5 477.68,48.5" style="stroke:#a80036;stroke-width:1"/><polygon fill="#A80036" points="482.87 48.5 473.87 44.5 477.87 48.5 473.87 52.5 482.87 48.5" style="stroke:#a80036;stroke-width:1"/><text x="424.75" y="41.567" fill="#000" font-family="sans-serif" font-size="13" lengthAdjust="spacingAndGlyphs" textLength="40">Pootle</text><path id=".po-&gt;.mo" fill="none" d="M491.03,71.06 C476.38,95.43 452.52,135.09 436.8,161.24" style="stroke:#a80036;stroke-width:1"/><polygon fill="#A80036" points="434.15 165.63 442.21 159.97 436.723 161.343 435.351 155.855 434.15 165.63" style="stroke:#a80036;stroke-width:1"/><text x="462" y="132.067" fill="#000" font-family="sans-serif" font-size="13" lengthAdjust="spacingAndGlyphs" textLength="50">msgfmt</text><path id="TranslatedBuild&lt;-.mo" fill="none" d="M346.94,188.5 C363.88,188.5 380.82,188.5 397.76,188.5" style="stroke:#a80036;stroke-width:1"/><polygon fill="#A80036" points="341.68 188.5 350.68 192.5 346.68 188.5 350.68 184.5 341.68 188.5" style="stroke:#a80036;stroke-width:1"/><path id=".rst-&gt;TranslatedBuild" fill="none" d="M188.71,66.7 C207.27,91.8 241.75,138.46 262,165.86" style="stroke:#a80036;stroke-width:1"/><polygon fill="#A80036" points="265.13 170.08 262.99 160.466 262.155 166.061 256.56 165.226 265.13 170.08" style="stroke:#a80036;stroke-width:1"/><text x="241" y="132.067" fill="#000" font-family="sans-serif" font-size="13" lengthAdjust="spacingAndGlyphs" textLength="165">sphinx-build -Dlanguage=</text></g></svg>